<mxfile host="app.diagrams.net" modified="2024-07-03T10:50:02.279Z" agent="Mozilla/5.0 (Windows NT 10.0; Win64; x64) AppleWebKit/537.36 (KHTML, like Gecko) Chrome/126.0.0.0 Safari/537.36 Edg/126.0.0.0" etag="mImfqrNYSihiymzty3hL" version="24.6.4" type="github">
  <diagram name="Page-1" id="MqTmVK4nqT4wBMc4dpxT">
    <mxGraphModel dx="1837" dy="1227" grid="1" gridSize="10" guides="1" tooltips="1" connect="1" arrows="1" fold="1" page="1" pageScale="1" pageWidth="827" pageHeight="1169" math="0" shadow="0">
      <root>
        <mxCell id="0" />
        <mxCell id="1" parent="0" />
        <mxCell id="Nrquurrz69j4Fm4_hiqp-1" value="Vertical Container" style="swimlane;whiteSpace=wrap;html=1;" vertex="1" parent="1">
          <mxGeometry x="-800" y="40" width="630" height="1040" as="geometry">
            <mxRectangle x="-800" y="40" width="140" height="30" as="alternateBounds" />
          </mxGeometry>
        </mxCell>
        <mxCell id="Nrquurrz69j4Fm4_hiqp-2" value="" style="ellipse;fillColor=strokeColor;html=1;" vertex="1" parent="Nrquurrz69j4Fm4_hiqp-1">
          <mxGeometry x="130" y="130" width="30" height="30" as="geometry" />
        </mxCell>
        <mxCell id="Nrquurrz69j4Fm4_hiqp-3" value="" style="html=1;verticalAlign=bottom;labelBackgroundColor=none;endArrow=block;endFill=1;rounded=0;exitX=0.5;exitY=1;exitDx=0;exitDy=0;" edge="1" parent="Nrquurrz69j4Fm4_hiqp-1" source="Nrquurrz69j4Fm4_hiqp-2">
          <mxGeometry width="160" relative="1" as="geometry">
            <mxPoint x="170" y="390" as="sourcePoint" />
            <mxPoint x="145" y="210" as="targetPoint" />
          </mxGeometry>
        </mxCell>
        <mxCell id="Nrquurrz69j4Fm4_hiqp-4" value="&lt;span style=&quot;font-size: 13px;&quot;&gt;A L&#39;initiation de la commande d&#39;une MOJ&lt;/span&gt;" style="text;html=1;align=center;verticalAlign=middle;whiteSpace=wrap;rounded=0;" vertex="1" parent="Nrquurrz69j4Fm4_hiqp-1">
          <mxGeometry x="40" y="80" width="80" height="90" as="geometry" />
        </mxCell>
        <mxCell id="Nrquurrz69j4Fm4_hiqp-5" value="&lt;font style=&quot;font-size: 14px;&quot;&gt;Remplir le Formulaire de Commande de la MOJ&lt;/font&gt;" style="html=1;align=center;verticalAlign=top;rounded=1;absoluteArcSize=1;arcSize=10;dashed=0;whiteSpace=wrap;" vertex="1" parent="Nrquurrz69j4Fm4_hiqp-1">
          <mxGeometry x="80" y="210" width="140" height="70" as="geometry" />
        </mxCell>
        <mxCell id="Nrquurrz69j4Fm4_hiqp-6" value="Message D&#39;erreur" style="swimlane;fontStyle=1;align=center;verticalAlign=middle;childLayout=stackLayout;horizontal=1;startSize=30;horizontalStack=0;resizeParent=0;resizeLast=1;container=0;fontColor=#000000;collapsible=0;rounded=1;arcSize=30;strokeColor=#ff0000;fillColor=#ffffff;swimlaneFillColor=#ffffff;dropTarget=0;labelBorderColor=none;labelBackgroundColor=none;" vertex="1" parent="Nrquurrz69j4Fm4_hiqp-1">
          <mxGeometry x="186" y="444" width="160" height="70" as="geometry" />
        </mxCell>
        <mxCell id="Nrquurrz69j4Fm4_hiqp-7" value="La quantité totale d&#39;unité d&#39;oeuvre à manipuler est invalide" style="text;html=1;strokeColor=none;fillColor=none;align=center;verticalAlign=middle;spacingLeft=4;spacingRight=4;whiteSpace=wrap;overflow=hidden;rotatable=0;fontColor=#000000;" vertex="1" parent="Nrquurrz69j4Fm4_hiqp-6">
          <mxGeometry y="30" width="160" height="40" as="geometry" />
        </mxCell>
        <mxCell id="Nrquurrz69j4Fm4_hiqp-8" value="Message D&#39;erreur" style="swimlane;fontStyle=1;align=center;verticalAlign=middle;childLayout=stackLayout;horizontal=1;startSize=30;horizontalStack=0;resizeParent=0;resizeLast=1;container=0;fontColor=#000000;collapsible=0;rounded=1;arcSize=30;strokeColor=#ff0000;fillColor=#ffffff;swimlaneFillColor=#ffffff;dropTarget=0;labelBorderColor=none;labelBackgroundColor=none;" vertex="1" parent="Nrquurrz69j4Fm4_hiqp-1">
          <mxGeometry x="176" y="299" width="160" height="80" as="geometry" />
        </mxCell>
        <mxCell id="Nrquurrz69j4Fm4_hiqp-9" value="Veuillez sélectionner un chantier SERVAL" style="text;html=1;strokeColor=none;fillColor=none;align=center;verticalAlign=middle;spacingLeft=4;spacingRight=4;whiteSpace=wrap;overflow=hidden;rotatable=0;fontColor=#000000;" vertex="1" parent="Nrquurrz69j4Fm4_hiqp-8">
          <mxGeometry y="30" width="160" height="50" as="geometry" />
        </mxCell>
        <mxCell id="Nrquurrz69j4Fm4_hiqp-10" value="&lt;font style=&quot;font-size: 18px;&quot;&gt;Ajouter&lt;/font&gt;" style="html=1;align=center;verticalAlign=top;rounded=1;absoluteArcSize=1;arcSize=10;dashed=0;whiteSpace=wrap;" vertex="1" parent="Nrquurrz69j4Fm4_hiqp-1">
          <mxGeometry x="330" y="220" width="100" height="40" as="geometry" />
        </mxCell>
        <mxCell id="Nrquurrz69j4Fm4_hiqp-11" value="" style="html=1;verticalAlign=bottom;labelBackgroundColor=none;endArrow=block;endFill=1;rounded=0;entryX=0;entryY=0.5;entryDx=0;entryDy=0;" edge="1" parent="Nrquurrz69j4Fm4_hiqp-1" target="Nrquurrz69j4Fm4_hiqp-10">
          <mxGeometry width="160" relative="1" as="geometry">
            <mxPoint x="220" y="239.44" as="sourcePoint" />
            <mxPoint x="300" y="239.44" as="targetPoint" />
          </mxGeometry>
        </mxCell>
        <mxCell id="Nrquurrz69j4Fm4_hiqp-12" value="Controle" style="swimlane;whiteSpace=wrap;html=1;" vertex="1" parent="1">
          <mxGeometry x="-120" y="40" width="310" height="1040" as="geometry">
            <mxRectangle x="90" y="40" width="90" height="30" as="alternateBounds" />
          </mxGeometry>
        </mxCell>
        <mxCell id="Nrquurrz69j4Fm4_hiqp-13" value="Confirmation ?" style="rhombus;" vertex="1" parent="Nrquurrz69j4Fm4_hiqp-12">
          <mxGeometry x="130" y="120" width="90" height="80" as="geometry" />
        </mxCell>
        <mxCell id="Nrquurrz69j4Fm4_hiqp-14" value="Vertical Container" style="swimlane;whiteSpace=wrap;html=1;" vertex="1" parent="1">
          <mxGeometry x="320" y="43" width="480" height="1040" as="geometry" />
        </mxCell>
        <mxCell id="Nrquurrz69j4Fm4_hiqp-15" value="Vérifier Saisie de la Qte UO manipulée" style="html=1;align=center;verticalAlign=top;rounded=1;absoluteArcSize=1;arcSize=10;dashed=0;whiteSpace=wrap;" vertex="1" parent="Nrquurrz69j4Fm4_hiqp-14">
          <mxGeometry x="47" y="316" width="140" height="40" as="geometry" />
        </mxCell>
        <mxCell id="Nrquurrz69j4Fm4_hiqp-16" value="Verifier la Saisie du nom de produits" style="html=1;align=center;verticalAlign=top;rounded=1;absoluteArcSize=1;arcSize=10;dashed=0;whiteSpace=wrap;" vertex="1" parent="Nrquurrz69j4Fm4_hiqp-14">
          <mxGeometry x="67" y="456" width="140" height="40" as="geometry" />
        </mxCell>
        <mxCell id="Nrquurrz69j4Fm4_hiqp-17" value="Vérifier L&#39;Entrer le Nom du Site" style="html=1;align=center;verticalAlign=top;rounded=1;absoluteArcSize=1;arcSize=10;dashed=0;whiteSpace=wrap;" vertex="1" parent="Nrquurrz69j4Fm4_hiqp-14">
          <mxGeometry x="76" y="599" width="140" height="40" as="geometry" />
        </mxCell>
        <mxCell id="Nrquurrz69j4Fm4_hiqp-18" value="Verifie La Saisie d&#39;un Code&lt;div&gt;Chantier&lt;/div&gt;" style="html=1;align=center;verticalAlign=top;rounded=1;absoluteArcSize=1;arcSize=10;dashed=0;whiteSpace=wrap;" vertex="1" parent="Nrquurrz69j4Fm4_hiqp-14">
          <mxGeometry x="50" y="120" width="140" height="50" as="geometry" />
        </mxCell>
        <mxCell id="Nrquurrz69j4Fm4_hiqp-19" value="" style="ellipse;html=1;shape=endState;fillColor=strokeColor;" vertex="1" parent="Nrquurrz69j4Fm4_hiqp-14">
          <mxGeometry x="314" y="739" width="52" height="50" as="geometry" />
        </mxCell>
        <mxCell id="Nrquurrz69j4Fm4_hiqp-20" value="" style="html=1;verticalAlign=bottom;labelBackgroundColor=none;endArrow=block;endFill=1;rounded=0;" edge="1" parent="Nrquurrz69j4Fm4_hiqp-14">
          <mxGeometry width="160" relative="1" as="geometry">
            <mxPoint x="226" y="759" as="sourcePoint" />
            <mxPoint x="316" y="759" as="targetPoint" />
          </mxGeometry>
        </mxCell>
        <mxCell id="Nrquurrz69j4Fm4_hiqp-21" value="" style="html=1;verticalAlign=bottom;labelBackgroundColor=none;endArrow=block;endFill=1;rounded=0;entryX=0;entryY=0.75;entryDx=0;entryDy=0;" edge="1" parent="1" target="Nrquurrz69j4Fm4_hiqp-18">
          <mxGeometry width="160" relative="1" as="geometry">
            <mxPoint x="100" y="200" as="sourcePoint" />
            <mxPoint x="260" y="200" as="targetPoint" />
          </mxGeometry>
        </mxCell>
        <mxCell id="Nrquurrz69j4Fm4_hiqp-22" value="" style="html=1;verticalAlign=bottom;labelBackgroundColor=none;endArrow=block;endFill=1;rounded=0;entryX=0.5;entryY=0;entryDx=0;entryDy=0;exitX=0.571;exitY=1;exitDx=0;exitDy=0;exitPerimeter=0;" edge="1" parent="1" source="Nrquurrz69j4Fm4_hiqp-18" target="Nrquurrz69j4Fm4_hiqp-23">
          <mxGeometry width="160" relative="1" as="geometry">
            <mxPoint x="390" y="280.00000000000006" as="sourcePoint" />
            <mxPoint x="55" y="290" as="targetPoint" />
            <Array as="points">
              <mxPoint x="450" y="250" />
              <mxPoint x="55" y="250" />
            </Array>
          </mxGeometry>
        </mxCell>
        <mxCell id="Nrquurrz69j4Fm4_hiqp-23" value="Condition&#xa;remplie ?" style="rhombus;" vertex="1" parent="1">
          <mxGeometry x="7" y="336" width="90" height="80" as="geometry" />
        </mxCell>
        <mxCell id="Nrquurrz69j4Fm4_hiqp-24" value="Si non" style="text;html=1;align=center;verticalAlign=middle;whiteSpace=wrap;rounded=0;" vertex="1" parent="1">
          <mxGeometry x="-63" y="346" width="60" height="30" as="geometry" />
        </mxCell>
        <mxCell id="Nrquurrz69j4Fm4_hiqp-25" value="Si oui" style="text;html=1;align=center;verticalAlign=middle;whiteSpace=wrap;rounded=0;" vertex="1" parent="1">
          <mxGeometry x="97" y="346" width="60" height="30" as="geometry" />
        </mxCell>
        <mxCell id="Nrquurrz69j4Fm4_hiqp-26" value="" style="html=1;verticalAlign=bottom;labelBackgroundColor=none;endArrow=block;endFill=1;rounded=0;exitX=1;exitY=0.5;exitDx=0;exitDy=0;exitPerimeter=0;" edge="1" parent="1">
          <mxGeometry width="160" relative="1" as="geometry">
            <mxPoint x="97" y="376" as="sourcePoint" />
            <mxPoint x="367" y="376" as="targetPoint" />
            <Array as="points" />
          </mxGeometry>
        </mxCell>
        <mxCell id="Nrquurrz69j4Fm4_hiqp-27" value="" style="html=1;verticalAlign=bottom;labelBackgroundColor=none;endArrow=block;endFill=1;rounded=0;exitX=0;exitY=0.5;exitDx=0;exitDy=0;entryX=1;entryY=0.25;entryDx=0;entryDy=0;" edge="1" parent="1" target="Nrquurrz69j4Fm4_hiqp-9">
          <mxGeometry width="160" relative="1" as="geometry">
            <mxPoint x="7" y="376" as="sourcePoint" />
            <mxPoint x="-454" y="379" as="targetPoint" />
            <Array as="points">
              <mxPoint x="-384" y="379" />
            </Array>
          </mxGeometry>
        </mxCell>
        <mxCell id="Nrquurrz69j4Fm4_hiqp-28" value="Condition&#xa;remplie ?" style="rhombus;" vertex="1" parent="1">
          <mxGeometry x="-3" y="476" width="90" height="80" as="geometry" />
        </mxCell>
        <mxCell id="Nrquurrz69j4Fm4_hiqp-29" value="Si non" style="text;html=1;align=center;verticalAlign=middle;whiteSpace=wrap;rounded=0;" vertex="1" parent="1">
          <mxGeometry x="-73" y="486" width="60" height="30" as="geometry" />
        </mxCell>
        <mxCell id="Nrquurrz69j4Fm4_hiqp-30" value="Si oui" style="text;html=1;align=center;verticalAlign=middle;whiteSpace=wrap;rounded=0;" vertex="1" parent="1">
          <mxGeometry x="87" y="486" width="60" height="30" as="geometry" />
        </mxCell>
        <mxCell id="Nrquurrz69j4Fm4_hiqp-31" value="" style="html=1;verticalAlign=bottom;labelBackgroundColor=none;endArrow=block;endFill=1;rounded=0;entryX=0.5;entryY=0;entryDx=0;entryDy=0;exitX=0.571;exitY=1;exitDx=0;exitDy=0;exitPerimeter=0;" edge="1" parent="1" target="Nrquurrz69j4Fm4_hiqp-28">
          <mxGeometry width="160" relative="1" as="geometry">
            <mxPoint x="437" y="396" as="sourcePoint" />
            <mxPoint x="447" y="466" as="targetPoint" />
            <Array as="points">
              <mxPoint x="437" y="436" />
              <mxPoint x="42" y="436" />
            </Array>
          </mxGeometry>
        </mxCell>
        <mxCell id="Nrquurrz69j4Fm4_hiqp-32" value="" style="html=1;verticalAlign=bottom;labelBackgroundColor=none;endArrow=block;endFill=1;rounded=0;exitX=1;exitY=0.5;exitDx=0;exitDy=0;exitPerimeter=0;" edge="1" parent="1" source="Nrquurrz69j4Fm4_hiqp-28">
          <mxGeometry width="160" relative="1" as="geometry">
            <mxPoint x="87" y="508" as="sourcePoint" />
            <mxPoint x="387" y="516" as="targetPoint" />
            <Array as="points">
              <mxPoint x="307" y="516" />
            </Array>
          </mxGeometry>
        </mxCell>
        <mxCell id="Nrquurrz69j4Fm4_hiqp-33" value="" style="html=1;verticalAlign=bottom;labelBackgroundColor=none;endArrow=block;endFill=1;rounded=0;exitX=0;exitY=0.5;exitDx=0;exitDy=0;" edge="1" parent="1" source="Nrquurrz69j4Fm4_hiqp-28">
          <mxGeometry width="160" relative="1" as="geometry">
            <mxPoint x="-3" y="505" as="sourcePoint" />
            <mxPoint x="-454" y="516" as="targetPoint" />
            <Array as="points" />
          </mxGeometry>
        </mxCell>
        <mxCell id="Nrquurrz69j4Fm4_hiqp-34" value="Message D&#39;erreur" style="swimlane;fontStyle=1;align=center;verticalAlign=middle;childLayout=stackLayout;horizontal=1;startSize=30;horizontalStack=0;resizeParent=0;resizeLast=1;container=0;fontColor=#000000;collapsible=0;rounded=1;arcSize=30;strokeColor=#ff0000;fillColor=#ffffff;swimlaneFillColor=#ffffff;dropTarget=0;labelBorderColor=none;labelBackgroundColor=none;" vertex="1" parent="1">
          <mxGeometry x="-604" y="624" width="160" height="70" as="geometry" />
        </mxCell>
        <mxCell id="Nrquurrz69j4Fm4_hiqp-35" value="Entrer Le nom&amp;nbsp; produit à manipuler" style="text;html=1;strokeColor=none;fillColor=none;align=center;verticalAlign=middle;spacingLeft=4;spacingRight=4;whiteSpace=wrap;overflow=hidden;rotatable=0;fontColor=#000000;" vertex="1" parent="Nrquurrz69j4Fm4_hiqp-34">
          <mxGeometry y="30" width="160" height="40" as="geometry" />
        </mxCell>
        <mxCell id="Nrquurrz69j4Fm4_hiqp-36" value="Condition&#xa;remplie ?" style="rhombus;" vertex="1" parent="1">
          <mxGeometry x="7" y="616" width="90" height="80" as="geometry" />
        </mxCell>
        <mxCell id="Nrquurrz69j4Fm4_hiqp-37" value="Si non" style="text;html=1;align=center;verticalAlign=middle;whiteSpace=wrap;rounded=0;" vertex="1" parent="1">
          <mxGeometry x="-63" y="626" width="60" height="30" as="geometry" />
        </mxCell>
        <mxCell id="Nrquurrz69j4Fm4_hiqp-38" value="Si oui" style="text;html=1;align=center;verticalAlign=middle;whiteSpace=wrap;rounded=0;" vertex="1" parent="1">
          <mxGeometry x="97" y="626" width="60" height="30" as="geometry" />
        </mxCell>
        <mxCell id="Nrquurrz69j4Fm4_hiqp-39" value="" style="html=1;verticalAlign=bottom;labelBackgroundColor=none;endArrow=block;endFill=1;rounded=0;entryX=0.5;entryY=0;entryDx=0;entryDy=0;exitX=0.571;exitY=1;exitDx=0;exitDy=0;exitPerimeter=0;" edge="1" parent="1" target="Nrquurrz69j4Fm4_hiqp-36">
          <mxGeometry width="160" relative="1" as="geometry">
            <mxPoint x="447" y="536" as="sourcePoint" />
            <mxPoint x="457" y="606" as="targetPoint" />
            <Array as="points">
              <mxPoint x="447" y="576" />
              <mxPoint x="52" y="576" />
            </Array>
          </mxGeometry>
        </mxCell>
        <mxCell id="Nrquurrz69j4Fm4_hiqp-40" value="" style="html=1;verticalAlign=bottom;labelBackgroundColor=none;endArrow=block;endFill=1;rounded=0;exitX=1;exitY=0.5;exitDx=0;exitDy=0;exitPerimeter=0;" edge="1" parent="1" source="Nrquurrz69j4Fm4_hiqp-36">
          <mxGeometry width="160" relative="1" as="geometry">
            <mxPoint x="97" y="648" as="sourcePoint" />
            <mxPoint x="397" y="656" as="targetPoint" />
            <Array as="points">
              <mxPoint x="317" y="656" />
            </Array>
          </mxGeometry>
        </mxCell>
        <mxCell id="Nrquurrz69j4Fm4_hiqp-41" value="" style="html=1;verticalAlign=bottom;labelBackgroundColor=none;endArrow=block;endFill=1;rounded=0;exitX=0;exitY=0.5;exitDx=0;exitDy=0;" edge="1" parent="1" source="Nrquurrz69j4Fm4_hiqp-36">
          <mxGeometry width="160" relative="1" as="geometry">
            <mxPoint x="7" y="645" as="sourcePoint" />
            <mxPoint x="-444" y="656" as="targetPoint" />
            <Array as="points" />
          </mxGeometry>
        </mxCell>
        <mxCell id="Nrquurrz69j4Fm4_hiqp-42" value="Enregistrer La Commande" style="html=1;align=center;verticalAlign=top;rounded=1;absoluteArcSize=1;arcSize=10;dashed=0;whiteSpace=wrap;" vertex="1" parent="1">
          <mxGeometry x="406" y="783" width="140" height="40" as="geometry" />
        </mxCell>
        <mxCell id="Nrquurrz69j4Fm4_hiqp-43" value="Message D&#39;erreur" style="swimlane;fontStyle=1;align=center;verticalAlign=middle;childLayout=stackLayout;horizontal=1;startSize=30;horizontalStack=0;resizeParent=0;resizeLast=1;container=0;fontColor=#000000;collapsible=0;rounded=1;arcSize=30;strokeColor=#ff0000;fillColor=#ffffff;swimlaneFillColor=#ffffff;dropTarget=0;labelBorderColor=none;labelBackgroundColor=none;" vertex="1" parent="1">
          <mxGeometry x="-594" y="768" width="160" height="70" as="geometry" />
        </mxCell>
        <mxCell id="Nrquurrz69j4Fm4_hiqp-44" value="Entrer Le nom&amp;nbsp; du Site&amp;nbsp;" style="text;html=1;strokeColor=none;fillColor=none;align=center;verticalAlign=middle;spacingLeft=4;spacingRight=4;whiteSpace=wrap;overflow=hidden;rotatable=0;fontColor=#000000;" vertex="1" parent="Nrquurrz69j4Fm4_hiqp-43">
          <mxGeometry y="30" width="160" height="40" as="geometry" />
        </mxCell>
        <mxCell id="Nrquurrz69j4Fm4_hiqp-45" value="Condition&#xa;remplie ?" style="rhombus;" vertex="1" parent="1">
          <mxGeometry x="17" y="760" width="90" height="80" as="geometry" />
        </mxCell>
        <mxCell id="Nrquurrz69j4Fm4_hiqp-46" value="Si non" style="text;html=1;align=center;verticalAlign=middle;whiteSpace=wrap;rounded=0;" vertex="1" parent="1">
          <mxGeometry x="-53" y="770" width="60" height="30" as="geometry" />
        </mxCell>
        <mxCell id="Nrquurrz69j4Fm4_hiqp-47" value="Si oui" style="text;html=1;align=center;verticalAlign=middle;whiteSpace=wrap;rounded=0;" vertex="1" parent="1">
          <mxGeometry x="107" y="770" width="60" height="30" as="geometry" />
        </mxCell>
        <mxCell id="Nrquurrz69j4Fm4_hiqp-48" value="" style="html=1;verticalAlign=bottom;labelBackgroundColor=none;endArrow=block;endFill=1;rounded=0;entryX=0.5;entryY=0;entryDx=0;entryDy=0;exitX=0.571;exitY=1;exitDx=0;exitDy=0;exitPerimeter=0;" edge="1" parent="1" target="Nrquurrz69j4Fm4_hiqp-45">
          <mxGeometry width="160" relative="1" as="geometry">
            <mxPoint x="457" y="680" as="sourcePoint" />
            <mxPoint x="467" y="750" as="targetPoint" />
            <Array as="points">
              <mxPoint x="457" y="720" />
              <mxPoint x="62" y="720" />
            </Array>
          </mxGeometry>
        </mxCell>
        <mxCell id="Nrquurrz69j4Fm4_hiqp-49" value="" style="html=1;verticalAlign=bottom;labelBackgroundColor=none;endArrow=block;endFill=1;rounded=0;exitX=1;exitY=0.5;exitDx=0;exitDy=0;exitPerimeter=0;" edge="1" parent="1" source="Nrquurrz69j4Fm4_hiqp-45">
          <mxGeometry width="160" relative="1" as="geometry">
            <mxPoint x="107" y="792" as="sourcePoint" />
            <mxPoint x="407" y="800" as="targetPoint" />
            <Array as="points">
              <mxPoint x="327" y="800" />
            </Array>
          </mxGeometry>
        </mxCell>
        <mxCell id="Nrquurrz69j4Fm4_hiqp-50" value="" style="html=1;verticalAlign=bottom;labelBackgroundColor=none;endArrow=block;endFill=1;rounded=0;exitX=0;exitY=0.5;exitDx=0;exitDy=0;" edge="1" parent="1" source="Nrquurrz69j4Fm4_hiqp-45">
          <mxGeometry width="160" relative="1" as="geometry">
            <mxPoint x="17" y="789" as="sourcePoint" />
            <mxPoint x="-434" y="800" as="targetPoint" />
            <Array as="points" />
          </mxGeometry>
        </mxCell>
        <mxCell id="Nrquurrz69j4Fm4_hiqp-51" value="" style="html=1;verticalAlign=bottom;labelBackgroundColor=none;endArrow=block;endFill=1;rounded=0;entryX=0;entryY=0.5;entryDx=0;entryDy=0;exitX=1;exitY=0.5;exitDx=0;exitDy=0;" edge="1" parent="1" source="Nrquurrz69j4Fm4_hiqp-10" target="Nrquurrz69j4Fm4_hiqp-13">
          <mxGeometry width="160" relative="1" as="geometry">
            <mxPoint x="-340" y="310" as="sourcePoint" />
            <mxPoint x="-410" y="310" as="targetPoint" />
            <Array as="points">
              <mxPoint x="-270" y="280" />
              <mxPoint x="-270" y="200" />
            </Array>
          </mxGeometry>
        </mxCell>
      </root>
    </mxGraphModel>
  </diagram>
</mxfile>
